<svg width="144" height="67" viewBox="0 0 144 67" fill="none" xmlns="http://www.w3.org/2000/svg">
<rect width="143.585" height="66.5394" fill="white"/>
<path d="M118.467 58.1213C112.774 58.1213 107.333 56.2511 102.937 52.7626C98.5406 56.2152 93.0997 58.1213 87.4065 58.1213C81.7133 58.1213 76.2724 56.2511 71.8764 52.7626C67.4804 56.2152 62.0394 58.1213 56.3462 58.1213C50.653 58.1213 45.2121 56.2511 40.8161 52.7626C36.4201 56.2152 30.9791 58.1213 25.2859 58.1213C18.6559 58.1213 12.4222 55.6038 7.70191 51.0003C2.90955 46.3968 0.24312 40.2468 0.135022 33.7013C0.0269231 27.1197 2.47715 20.8978 7.05332 16.1145C11.5935 11.3672 17.7551 8.63389 24.3851 8.41811H24.4932H26.0787C31.4836 8.59793 36.6002 10.4681 40.78 13.7409C44.9238 10.4681 50.0405 8.59793 55.4454 8.41811L55.5535 11.2234V8.41811H57.1389C62.5439 8.59793 67.6605 10.4681 71.8403 13.7409C76.0201 10.4681 81.1008 8.59793 86.5417 8.41811H86.6498H88.2353C93.6402 8.59793 98.7568 10.4681 102.937 13.7409C107.08 10.4681 112.197 8.59793 117.638 8.41811L117.746 11.2234V8.41811H119.332C125.926 8.63389 132.087 11.3672 136.663 16.1145C141.24 20.8619 143.69 27.1197 143.582 33.6653C143.474 40.2468 140.807 46.3968 136.087 51.0003C131.294 55.6038 125.061 58.1213 118.467 58.1213ZM107.044 48.6985C110.251 51.0362 114.215 52.4389 118.467 52.4389C128.952 52.4389 137.636 43.9872 137.78 33.6293C137.961 23.2715 129.601 14.5681 119.151 14.1725H117.782C113.783 14.3163 110.107 15.683 107.08 17.8768C110.684 22.3724 112.557 27.911 112.485 33.7013C112.341 39.2039 110.468 44.4187 107.044 48.6985ZM75.9841 48.6985C79.191 51.0362 83.1546 52.4389 87.4065 52.4389C91.6584 52.4389 95.586 51.0362 98.7929 48.6985C95.4058 44.4547 93.496 39.2039 93.3879 33.7013C93.2798 27.911 95.1896 22.3724 98.7929 17.8768C95.7661 15.683 92.0908 14.3163 88.0911 14.1725H86.7219C82.7222 14.3163 79.0469 15.683 76.0201 17.8768C79.6234 22.3724 81.4971 27.911 81.4251 33.7013C81.2809 39.2039 79.3712 44.4187 75.9841 48.6985ZM44.8878 48.6985C48.0947 51.0362 52.0583 52.4389 56.3102 52.4389C60.5621 52.4389 64.4896 51.0362 67.6966 48.6985C64.3095 44.4547 62.3997 39.2039 62.2916 33.7013C62.1835 27.911 64.0933 22.3724 67.6966 17.8768C64.6698 15.683 60.9944 14.3163 56.9948 14.1725H55.6256C51.6259 14.3163 47.9506 15.683 44.9238 17.8768C48.5271 22.3724 50.4008 27.911 50.3287 33.7013C50.1846 39.2039 48.2749 44.4187 44.8878 48.6985ZM24.5292 14.1365C14.0797 14.4961 5.72011 23.2356 5.90027 33.5934C6.08044 43.9512 14.7283 52.4029 25.2139 52.4029C29.4657 52.4029 33.3933 51.0003 36.6002 48.6626C33.2131 44.4187 31.3034 39.1679 31.1953 33.6653C31.0872 27.875 32.997 22.3364 36.6002 17.8409C33.5735 15.647 29.8981 14.2803 25.8985 14.1365H24.5292ZM71.8403 21.9408C69.3901 25.2136 67.9848 29.2417 68.0569 33.5934C68.1289 37.6934 69.5342 41.5056 71.8403 44.5986C74.1464 41.5056 75.5517 37.6934 75.6238 33.5934C75.6958 29.2417 74.2545 25.2136 71.8403 21.9408ZM40.744 21.9408C38.2938 25.2136 36.8885 29.2417 36.9606 33.5934C37.0326 37.6934 38.4379 41.5056 40.744 44.5986C43.0501 41.5056 44.4554 37.6934 44.5275 33.5934C44.5995 29.2417 43.1942 25.2136 40.744 21.9408ZM102.901 21.9408C100.45 25.2136 99.0451 29.2417 99.1172 33.5934C99.1892 37.6934 100.595 41.5056 102.901 44.5986C105.207 41.5056 106.612 37.6934 106.684 33.5934C106.792 29.2417 105.351 25.2136 102.901 21.9408Z" fill="#5F5F5F"/>
</svg>
