<svg width="225" height="67" viewBox="0 0 225 67" fill="none" xmlns="http://www.w3.org/2000/svg">
<rect width="224.133" height="66.5394" fill="white"/>
<path d="M213.78 35.7581L215.088 35.6526C215.624 35.6104 216.16 35.5471 216.653 35.4838C217.939 35.294 219.032 34.9565 219.932 34.4924C220.275 34.3236 220.446 34.1971 220.832 33.9228C221.968 33.1212 222.547 32.0454 222.633 30.5687C222.654 30.2734 222.633 30.0414 222.611 29.7882C222.547 28.8601 222.333 28.0796 221.947 27.4678C221.497 26.7295 220.854 26.1599 219.996 25.738C219.139 25.3161 218.046 24.9997 216.781 24.8099C216.781 24.8099 214.916 24.5145 212.152 24.5145H191.018V42.0443H197.662V35.8847H206.686L216.845 42.0654H224.133L213.78 35.7581ZM210.758 26.5607C210.801 26.5607 210.823 26.5607 210.865 26.5607C211.616 26.5818 212.259 26.6029 212.816 26.6662C213.523 26.7506 214.123 26.8982 214.595 27.1514C215.088 27.4045 215.474 27.7842 215.667 28.2483C215.86 28.6491 215.945 29.1554 215.967 29.7671C215.967 29.8093 215.988 30.6531 215.945 31.075C215.924 31.4969 215.817 31.961 215.667 32.2774C215.517 32.6149 215.302 32.8892 215.002 33.1212C214.916 33.1845 214.831 33.2478 214.745 33.29C214.316 33.522 213.78 33.6697 213.095 33.7541C212.473 33.8174 211.68 33.8595 210.737 33.8595H197.619V26.5607H210.758Z" fill="#5F5F5F"/>
<path d="M21.8196 24.5356V32.7837C21.8196 35.2518 20.8979 37.087 19.076 38.2261C17.5114 39.2176 15.2394 39.7239 12.3458 39.7239H0V42.0654H10.2453C13.096 42.0654 15.7109 41.9599 18.0044 41.749C20.2549 41.538 22.1625 41.1161 23.7057 40.4833C25.2061 39.8715 26.385 38.9855 27.1994 37.8464C27.9282 36.8128 28.3354 35.4627 28.4212 33.7962C28.4212 33.6486 28.4426 33.4587 28.4426 33.2477V24.5356H21.8196Z" fill="#5F5F5F"/>
<path d="M97.8885 34.0284V39.724H87.7503C82.4347 39.724 79.3483 38.0364 78.5124 34.7456C78.1694 33.3744 78.3838 32.0666 78.5124 31.5814C79.3268 28.2484 82.3704 26.6241 87.7503 26.6241H103.611V24.5357H89.8294C86.9358 24.5357 84.3209 24.6412 82.0275 24.831C79.7984 25.0209 77.8694 25.4428 76.3261 26.0545C74.8043 26.6663 73.6469 27.5312 72.8539 28.6703C72.0822 29.7461 71.6964 31.2017 71.6536 32.9947C71.6536 33.0369 71.6536 33.0791 71.6536 33.1424C71.6536 33.2268 71.6536 33.3111 71.6536 33.4166C71.675 35.273 72.0822 36.7707 72.8753 37.8676C73.6898 39.0068 74.8686 39.8927 76.369 40.5045C77.9122 41.1373 79.8413 41.5592 82.0704 41.7702C84.3638 41.9811 86.9573 42.0866 89.8294 42.0866H104.512V34.0284H97.8885Z" fill="#5F5F5F"/>
<path d="M53.6055 24.5357H46.7681L31.443 42.0655H35.4082L38.8591 38.1208H58.128L61.5789 42.0655H68.9521L53.6055 24.5357ZM48.4828 27.1093L56.4776 36.2433H40.5095L48.4828 27.1093Z" fill="#5F5F5F"/>
<path d="M162.918 24.5357L147.593 42.0655H151.558L155.009 38.0997H174.256L177.707 42.0655H185.102L169.776 24.5357H162.918ZM172.649 36.2433H156.659L164.654 27.1093L172.649 36.2433Z" fill="#5F5F5F"/>
<path d="M137.969 24.5357V33.4166C137.969 34.176 137.862 34.8722 137.712 35.505C136.855 38.7325 133.79 40.3779 128.517 40.399H127.852C122.558 40.399 119.472 38.7114 118.636 35.4417C118.486 34.83 118.4 34.1549 118.4 33.4377V24.5357H111.756V33.6909C111.756 35.5894 112.163 37.1504 112.977 38.2895C113.492 38.9857 114.135 39.6185 114.906 40.1248C115.378 40.4201 115.892 40.6943 116.471 40.9264C117.05 41.1584 117.671 41.3694 118.357 41.5381C119.493 41.8335 120.779 42.0444 122.194 42.1921C123.973 42.3608 125.988 42.4663 128.174 42.4663C130.382 42.4663 132.375 42.3608 134.154 42.1921C135.547 42.0655 136.833 41.8546 137.969 41.5592C138.655 41.3905 139.277 41.1795 139.855 40.9475C140.434 40.7154 140.948 40.4623 141.42 40.1459C142.213 39.6396 142.856 39.0279 143.349 38.3106C144.163 37.1715 144.571 35.6105 144.571 33.712V24.5357H137.969Z" fill="#5F5F5F"/>
</svg>
