<svg width="79" height="67" viewBox="0 0 79 67" fill="none" xmlns="http://www.w3.org/2000/svg">
<path d="M11.1731 23.0477C15.2726 11.1625 26.6063 3.13192 39.3869 3.13192C52.1674 3.13192 63.5011 11.1625 67.6006 23.0477V23.128H76.6032V22.084L72.9057 21.6825C70.5747 21.4416 70.0924 20.3976 69.4493 19.1127L69.2886 18.7915C63.903 7.38812 52.1674 7.62939e-06 39.3869 7.62939e-06C26.6063 7.62939e-06 14.8707 7.38812 9.40475 18.7915L9.24399 19.1127C8.68133 20.3976 8.11866 21.4416 5.86799 21.6825L2.09009 22.084V23.128H11.0928L11.1731 23.0477Z" fill="#5F5F5F"/>
<path d="M67.6809 42.8832V42.9635C63.5011 54.8487 52.1674 62.8793 39.3869 62.8793C26.6063 62.8793 15.2726 54.8487 11.1731 42.9635V42.8832H2.09009V43.9272L5.86799 44.3287C8.19904 44.5696 8.68133 45.6136 9.32437 46.8985L9.48514 47.2197C14.7903 58.6231 26.6063 66.0112 39.3869 66.0112C52.1674 66.0112 63.903 58.6231 69.3689 47.2197L69.5297 46.8985C70.1728 45.6136 70.655 44.6499 72.9861 44.3287L76.764 43.9272V42.8832H67.6809Z" fill="#5F5F5F"/>
<path d="M18.2469 28.8297H16.157V37.9845H18.2469V28.8297Z" fill="#5F5F5F"/>
<path d="M11.2533 37.9042V28.8297H9.24381V35.6556L2.57219 28.8297H0V37.9042H2.00952V31.0782L8.76152 37.9042H11.2533Z" fill="#5F5F5F"/>
<path d="M56.9899 28.8297L51.3633 37.9845H53.7747L54.7393 36.3784H61.2501L62.2147 37.9845H64.6261L58.9995 28.8297H56.9899ZM60.2856 34.6117H55.7842L58.0349 30.9176L60.2856 34.6117Z" fill="#5F5F5F"/>
<path d="M45.6565 36.0572C45.5762 36.0572 45.335 36.0572 45.2546 36.0572H36.8146V37.9043H45.335C45.4154 37.9043 45.8977 37.9043 45.9781 37.9043C47.7464 37.7437 48.4699 36.3785 48.4699 35.0936C48.4699 33.8087 47.6661 32.5238 46.0584 32.3632C45.8173 32.3632 45.5762 32.3632 45.4154 32.3632H39.8691C39.628 32.3632 39.4672 32.3632 39.2261 32.2829C38.8242 32.2026 38.583 31.8814 38.6634 31.4798C38.6634 31.0783 38.9045 30.7571 39.3064 30.6768C39.4672 30.5965 39.7083 30.5965 39.8691 30.5965H47.9072V28.7494H39.7887C39.5476 28.7494 39.2261 28.7494 38.9849 28.8297C37.6184 28.9904 36.5735 30.1146 36.5735 31.4798C36.5735 32.6041 37.2969 33.9693 38.9045 34.1299C39.2261 34.1299 39.4672 34.2102 39.7887 34.1299H45.1742C45.2546 34.1299 45.4958 34.1299 45.5762 34.1299C46.0584 34.2102 46.38 34.6118 46.38 35.0133C46.38 35.5754 46.0584 35.9769 45.6565 36.0572Z" fill="#5F5F5F"/>
<path d="M30.8663 36.0572C30.7859 36.0572 30.5447 36.0572 30.4643 36.0572H22.1047V37.9042H30.5447C30.6251 37.9042 31.1074 37.9042 31.1878 37.9042C32.9562 37.7436 33.76 36.3784 33.76 35.1738C33.76 33.9692 32.9562 32.604 31.3485 32.4434C31.1074 32.4434 30.8663 32.4434 30.7055 32.4434H25.1592C24.9181 32.4434 24.7573 32.4434 24.5162 32.3631C24.1143 32.2828 23.8731 31.9616 23.9535 31.56C23.9535 31.1585 24.1946 30.8373 24.5965 30.757C24.7573 30.6767 24.9984 30.6767 25.1592 30.6767H33.1973V28.8297H24.9984C24.7573 28.8297 24.4358 28.8297 24.1946 28.91C22.8282 29.0706 21.7832 30.1948 21.7832 31.56C21.7832 32.6843 22.5066 34.0495 24.1143 34.2101C24.4358 34.2101 24.6769 34.2904 24.9984 34.2101H30.384C30.4643 34.2101 30.7055 34.2101 30.7859 34.2101C31.2682 34.2904 31.5897 34.692 31.5897 35.0935C31.6701 35.5753 31.2682 35.9768 30.8663 36.0572Z" fill="#5F5F5F"/>
<path d="M78.7734 37.9042V28.8297H76.7638V35.6556L70.0922 28.8297H67.52V37.9042H69.5295V31.0782L76.2815 37.9042H78.7734Z" fill="#5F5F5F"/>
<path d="M73.5487 60.4701C74.5132 60.4701 75.317 61.2732 75.317 62.2368C75.317 63.2005 74.5132 64.0036 73.5487 64.0036C72.5841 64.0036 71.7803 63.2005 71.7803 62.2368C71.7803 61.755 71.941 61.3535 72.3429 60.952C72.5841 60.6307 73.0664 60.3898 73.5487 60.4701ZM73.5487 63.602C73.9506 63.602 74.2721 63.4414 74.5132 63.2005C74.7544 62.9596 74.9151 62.5581 74.9151 62.2368C74.9151 61.5141 74.2721 60.8717 73.5487 60.952C72.8252 60.952 72.1822 61.5944 72.1822 62.3172C72.1822 62.9596 72.7448 63.602 73.5487 63.602ZM72.8252 63.1202V61.3535C73.0664 61.3535 73.2271 61.2732 73.4683 61.2732C73.7898 61.2732 74.2721 61.3535 74.2721 61.755C74.2721 61.9959 74.1113 62.1565 73.8702 62.1565C74.0309 62.2368 74.1113 62.3975 74.1917 62.5581C74.1917 62.7187 74.2721 62.8793 74.3525 62.9596H73.9506C73.8702 62.799 73.8702 62.6384 73.7898 62.5581C73.7094 62.3172 73.5487 62.3172 73.2271 62.3172V63.0399L72.8252 63.1202ZM73.2271 62.0762C73.5487 62.0762 73.8702 62.0762 73.8702 61.8353C73.8702 61.6747 73.7898 61.5944 73.4683 61.5944C73.3879 61.5944 73.3075 61.5944 73.2271 61.5944V62.0762Z" fill="#5F5F5F"/>
</svg>
