<svg width="225" height="67" viewBox="0 0 225 67" fill="none" xmlns="http://www.w3.org/2000/svg">
<rect width="224.133" height="66.5394" fill="white"/>
<g clip-path="url(#clip0_1_1025)">
<path d="M3.80119 27.1274L11.5201 40.9348L20.443 40.958L28.0203 27.1274H31.8207V24.6127H20.3958V27.1274H23.7005L18.1769 37.1861L12.5824 27.1274H16.5953V24.6127H0.000732422V27.1274H3.80119Z" fill="#5F5F5F"/>
<path d="M102.069 27.1274V24.6361H117.365V27.1274H113.565V38.4201H117.106C120.387 38.4201 122.535 36.278 122.535 33.3908H125.061V40.9581H102.093V38.3968H105.94V27.1041H102.069V27.1274Z" fill="#5F5F5F"/>
<path d="M64.9852 24.2635C57.3135 24.2635 53.2297 28.0355 53.2297 32.7854C53.2297 37.5819 57.1482 41.4237 65.0324 41.4237C72.9166 41.4237 76.7879 37.5819 76.7879 32.7854C76.7879 28.0588 72.6805 24.2635 64.9852 24.2635ZM64.9144 38.8392C62.1053 38.7926 60.8779 35.7424 60.9251 32.6923C60.9723 29.5489 62.5066 26.8014 65.1268 26.848C67.747 26.8946 69.1397 29.6886 69.0925 32.832C69.0453 35.789 67.7942 38.8858 64.9144 38.8392Z" fill="#5F5F5F"/>
<path d="M151.121 27.1274L158.84 40.9348L167.763 40.958L175.34 27.1274H179.141V24.6128H167.716V27.1274H171.021L165.497 37.1861L159.902 27.1274H163.915V24.6128H147.321V27.1274H151.121Z" fill="#5F5F5F"/>
<path d="M212.306 24.2635C204.635 24.2635 200.551 28.0355 200.551 32.7854C200.551 37.5819 204.469 41.4237 212.353 41.4237C220.238 41.4237 224.109 37.5819 224.109 32.7854C224.109 28.0588 220.002 24.2635 212.306 24.2635ZM212.235 38.8392C209.426 38.7926 208.199 35.7424 208.246 32.6923C208.293 29.5489 209.828 26.8014 212.448 26.848C215.068 26.8946 216.461 29.6886 216.414 32.832C216.366 35.789 215.115 38.8858 212.235 38.8392Z" fill="#5F5F5F"/>
</g>
<defs>
<clipPath id="clip0_1_1025">
<rect width="224.133" height="17.1835" fill="white" transform="translate(0.000244141 24.2402)"/>
</clipPath>
</defs>
</svg>
